<svg width="98" height="30" viewBox="0 0 98 30" fill="none" xmlns="http://www.w3.org/2000/svg">
<path fill-rule="evenodd" clip-rule="evenodd" d="M94.2421 16.9653H93.374L92.6469 17.9428V16.9653H91.9027V19.41H92.6466V18.4114L93.3433 19.41H94.2671L93.2798 18.1488L94.2421 16.9653ZM88.0289 16.9653H88.7727V19.4128H88.0289V16.9653ZM83.2399 17.5518H83.7985V19.41H84.5395V17.5518H85.0981V16.9653H83.2399V17.5518ZM79.9742 17.959C79.9178 17.9321 79.8584 17.9113 79.7972 17.8971C79.7504 17.8782 79.7012 17.8657 79.6508 17.8598C79.6372 17.8518 79.6151 17.8491 79.593 17.8463C79.5734 17.8384 79.5541 17.8356 79.5291 17.8277C79.4844 17.8149 79.443 17.793 79.4077 17.7634C79.3905 17.748 79.3768 17.7293 79.3673 17.7086C79.3578 17.6878 79.3527 17.6654 79.3524 17.6428C79.3578 17.6296 79.3578 17.6134 79.3578 17.5999C79.3635 17.5785 79.3689 17.5653 79.3717 17.5518C79.388 17.5187 79.414 17.4908 79.4463 17.4716C79.4849 17.4447 79.5291 17.434 79.593 17.434C79.6676 17.4419 79.7311 17.4554 79.7836 17.4824C79.8528 17.5142 79.9053 17.5491 79.966 17.5895C79.9799 17.5999 79.991 17.6109 80.0049 17.6213C80.0185 17.6348 80.0296 17.6428 80.0381 17.6483H80.0713L80.3255 17.134C80.3201 17.1288 80.3172 17.1288 80.3172 17.1288L80.3062 17.1208C80.1487 17.0164 80.0021 16.9521 79.8636 16.9307C79.762 16.9079 79.6583 16.8953 79.5541 16.8931H79.5209C79.2307 16.8958 79.0119 16.9681 78.8602 17.1074C78.7868 17.1748 78.7288 17.2562 78.6897 17.3466C78.6506 17.4369 78.6314 17.5341 78.6332 17.632C78.6332 17.8329 78.6775 17.9829 78.7688 18.0848C78.8656 18.1837 78.9708 18.2587 79.0786 18.3067C79.1229 18.3282 79.1672 18.3416 79.2114 18.3551C79.2611 18.371 79.2999 18.3817 79.3385 18.39C79.3439 18.3952 79.3524 18.3952 79.3578 18.3952C79.364 18.3971 79.3705 18.398 79.3771 18.398C79.4738 18.4246 79.5541 18.4567 79.6177 18.4916C79.6869 18.529 79.7172 18.5933 79.7172 18.6845V18.7274C79.7134 18.7443 79.7069 18.7605 79.6979 18.7754C79.686 18.8073 79.6637 18.8346 79.6344 18.8532C79.5984 18.8826 79.5513 18.8933 79.4877 18.8933H79.4574C79.4435 18.8853 79.4381 18.8853 79.4296 18.8853C79.3393 18.8705 79.253 18.8386 79.1754 18.7916C79.0947 18.7462 79.0188 18.6933 78.9487 18.6337L78.9155 18.6015C78.9037 18.5906 78.8926 18.579 78.8823 18.5666H78.8434L78.5115 19.0889C78.6253 19.1746 78.7217 19.2468 78.8103 19.2977C78.907 19.3537 78.9955 19.3913 79.084 19.4207C79.1476 19.4421 79.2057 19.4556 79.2664 19.4636C79.3303 19.477 79.3881 19.4798 79.4574 19.4798L79.4906 19.4767C79.745 19.4767 79.966 19.4155 80.1513 19.2869C80.3476 19.1584 80.4418 18.9548 80.4418 18.6765C80.4361 18.4623 80.389 18.3067 80.2951 18.1999C80.1927 18.09 80.0906 18.0098 79.9746 17.9587L79.9742 17.959ZM74.834 16.9653H75.5753V19.4128H74.8343L74.834 16.9653Z" fill="#5DA729"/>
<path d="M71.2341 18.4274C71.2427 18.4194 71.2481 18.4194 71.2481 18.4194C71.3808 18.3711 71.4886 18.2936 71.5911 18.1865C71.6989 18.0714 71.7485 17.9106 71.7485 17.6967C71.7485 17.4983 71.7042 17.3507 71.6103 17.2519C71.528 17.1574 71.4238 17.0831 71.3062 17.0351C71.2203 16.9994 71.1286 16.9786 71.0353 16.9736C70.9819 16.9679 70.9284 16.9643 70.8747 16.9629H69.791V19.41H70.5374V18.6603L71.0381 19.4103H71.9312L71.2206 18.4329C71.2288 18.4274 71.2341 18.4274 71.2341 18.4274ZM71.0075 17.7686V17.809C70.9979 17.8726 70.9712 17.9326 70.93 17.9829C70.8776 18.0392 70.7919 18.0634 70.6759 18.0634H70.5374V17.5011H70.6759C70.7919 17.5035 70.8776 17.5277 70.9247 17.5785C70.9701 17.6248 70.9991 17.6839 71.0075 17.7472V17.7686Z" fill="#5DA729"/>
<path fill-rule="evenodd" clip-rule="evenodd" d="M65.9413 18.406C65.9413 18.4353 65.9413 18.465 65.9356 18.5051C65.9302 18.5425 65.9245 18.5826 65.9163 18.623C65.8914 18.6903 65.8529 18.7522 65.8028 18.8048C65.7475 18.8639 65.6701 18.8933 65.5569 18.8933C65.4406 18.8905 65.3606 18.8612 65.3081 18.8048C65.2598 18.7519 65.223 18.69 65.2 18.623C65.1862 18.585 65.1779 18.5453 65.1753 18.5051C65.1696 18.4623 65.1696 18.4329 65.1696 18.406V16.9629H64.4258V18.4194C64.4315 18.7917 64.5282 19.0568 64.7384 19.2254C64.9458 19.3969 65.2139 19.4795 65.5376 19.4795L65.5705 19.4771C65.9053 19.4771 66.1733 19.3914 66.3753 19.2254C66.5853 19.0513 66.6852 18.7834 66.6852 18.4194V16.9629H65.9413V18.406Z" fill="#5DA729"/>
<path d="M60.0746 16.8931H60.0357C59.5849 16.8958 59.2447 17.0271 59.0209 17.284C58.7914 17.5439 58.6836 17.8436 58.6836 18.1864C58.6836 18.5317 58.7968 18.8345 59.0263 19.0913C59.2615 19.3485 59.5985 19.4795 60.0357 19.4795L60.0742 19.477C60.5304 19.4743 60.8652 19.343 61.089 19.0886C61.3144 18.8391 61.4365 18.5178 61.432 18.1864C61.4263 17.8436 61.3157 17.5436 61.089 17.284C60.8595 17.0244 60.5197 16.8931 60.0746 16.8931ZM60.5194 18.6655C60.4255 18.7757 60.3234 18.84 60.2042 18.8691C60.1789 18.878 60.153 18.8852 60.1267 18.8905C60.0964 18.8933 60.0742 18.8933 60.0496 18.8933C60.0189 18.8905 59.9943 18.8905 59.9664 18.8853C59.9415 18.8774 59.914 18.8718 59.889 18.8639C59.7758 18.829 59.6788 18.7619 59.5849 18.6576C59.491 18.5504 59.4467 18.3925 59.4467 18.1861C59.4467 17.9777 59.491 17.8221 59.5849 17.7178C59.6845 17.6106 59.7812 17.5384 59.889 17.509C59.9193 17.4983 59.9415 17.4903 59.9721 17.4876C60.0053 17.4796 60.03 17.4796 60.055 17.4796C60.0853 17.4824 60.1046 17.4824 60.1296 17.4876C60.1599 17.4955 60.182 17.4983 60.207 17.5035C60.3259 17.5384 60.4283 17.6054 60.5222 17.7098C60.6218 17.8169 60.6689 17.9749 60.6689 18.1837C60.6632 18.4032 60.6136 18.5608 60.5194 18.6655Z" fill="#5DA729"/>
<path fill-rule="evenodd" clip-rule="evenodd" d="M54.0075 17.5518H54.5601V19.41H55.3068V17.5518H55.86V16.9653H54.0075V17.5518ZM34.931 13.7228C35.2436 13.6347 35.6085 13.8113 35.8769 13.9423C35.5617 13.1534 35.5617 12.279 35.8769 11.49H0V15.0833H34.1182C34.1182 14.4673 34.1625 13.9852 34.931 13.7228Z" fill="#5DA729"/>
<path fill-rule="evenodd" clip-rule="evenodd" d="M35.2879 17.5786C34.7486 17.1824 34.2478 16.6149 34.1154 15.9132H0V19.4183H39.3606L38.9986 18.7167C36.9605 18.4115 36.242 18.323 35.2879 17.5786ZM36.2417 10.1297C34.931 9.29702 33.8002 8.29018 32.8518 7.06386H0V10.6571H36.1035L36.2417 10.1297ZM30.5403 2.63794H0V6.18835H32.2629C31.4915 5.13345 30.9497 3.90712 30.5403 2.63794Z" fill="#0061A3"/>
<path d="M49.0835 6.49358C48.7215 6.40541 48.3592 6.40541 48.044 6.40541C47.726 6.71062 47.4551 6.97572 47.1842 7.32378H47.0015C47.0015 6.88449 47.0457 6.62215 47.09 6.22878C46.9572 5.65817 46.5952 5.65817 46.1887 5.26449C46.0502 4.38898 45.0108 4.16949 45.1489 3.20582C45.2375 2.76653 45.7821 3.1599 46.1444 2.89786C46.6392 2.72368 47.0486 3.59919 47.4551 2.89786C47.4994 2.855 47.3666 2.72368 47.3666 2.59266L47.6375 2.50419C47.9527 1.18939 46.2797 1.67153 45.6465 1.05837C45.7407 0.533372 45.196 0.664698 44.9251 0.402351C44.7867 0.402351 44.8809 0.182861 44.6981 0.182861C44.4244 0.271025 44.0596 0.271025 43.9296 0.707555C43.8854 0.445208 43.6116 0.356739 43.4788 0.313882C43.4346 0.533372 43.7055 0.707555 43.5673 1.01551C42.9341 1.06113 42.5719 1.54296 42.3452 1.97949L42.3009 1.93664C42.2124 2.46133 41.6677 2.81215 41.6677 3.38245C41.8059 3.60194 41.9858 3.20827 42.2124 3.3396C41.9386 3.47092 41.8059 3.64756 41.6677 3.86429C41.5792 4.12939 41.5792 4.34643 41.6677 4.56592C41.9358 4.47745 42.2124 4.12664 42.4366 4.04123C42.3423 4.48021 42.0743 4.69694 41.8033 5.04776L41.7591 5.70378C41.4853 5.5299 41.1701 5.2648 40.946 4.9596C40.628 4.78266 40.4898 4.38929 40.2189 4.03817C38.9996 2.59266 37.1885 3.68766 35.7893 3.55633C34.0221 3.24868 32.3495 2.68082 31.0859 1.36633C31.0859 1.80531 31.2241 2.15337 31.4482 2.59266C31.6306 3.20582 32.1254 3.68766 32.6704 4.03847C32.2638 4.12664 31.9875 3.81898 31.6746 3.68766V3.77337C31.8928 4.33362 32.2323 4.84215 32.6704 5.2648C33.0766 5.78949 33.7983 5.61562 34.2491 5.92082C34.0667 6.14031 33.7098 6.05184 33.3918 6.05184C33.7098 6.665 34.3433 7.14715 34.9762 7.14715C35.1589 7.19245 35.3828 6.97296 35.427 7.23531C35.3828 7.54327 34.9762 7.49766 34.7496 7.49766C34.9762 7.93694 35.427 8.33031 35.8336 8.63827C36.9173 8.68113 37.6861 9.90745 38.7701 9.25143C39.2705 9.73358 39.8095 9.03194 40.3542 9.07756C40.3542 9.16602 40.2161 9.25143 40.2161 9.29705C39.5386 9.51653 38.864 9.82174 38.6816 10.5234C38.6816 11.0937 38.0926 10.7429 37.8217 10.8313C37.1389 10.8742 36.8259 11.533 36.5995 12.1461C36.2815 13.1983 37.2324 14.1166 36.3754 14.8611C36.1016 14.9921 35.8307 14.8611 35.6041 14.6869C35.6483 14.9949 35.7368 15.2144 35.9606 15.343C36.2344 15.4314 36.6435 15.3001 36.7737 15.1235C36.7737 15.2974 36.641 15.3858 36.5467 15.5625C36.052 15.7819 35.6455 15.343 35.2803 15.1688C35.2803 15.5625 35.557 15.6938 35.6869 15.9586C35.8693 16.1784 35.416 16.0902 35.416 16.1784C36.0934 16.8371 37.0004 17.4503 37.9459 17.1852C38.3525 17.0967 38.6234 16.6174 38.8529 16.2638C38.9414 15.3883 38.9414 14.4246 38.4464 13.6801C38.0841 13.2411 38.0841 12.628 37.9459 12.1461C38.0841 11.8835 38.3082 11.5755 38.6234 11.533C38.759 11.9692 38.9414 12.3656 39.262 12.6708C39.489 13.3268 40.3463 13.5919 40.2521 14.2908C39.9369 14.9921 39.262 15.6053 39.3505 16.3498C39.8952 16.963 40.3463 17.7528 40.4788 18.6283C40.8853 18.6283 40.7525 19.153 40.8853 19.3299C41.2476 19.4609 41.6567 19.3299 41.9747 19.3299C41.7923 18.6283 41.2033 18.3228 40.8853 17.7528C40.841 17.6214 40.7525 17.3591 40.8853 17.2709C41.1591 17.4019 41.5185 17.6214 41.5185 18.0151C41.8808 17.9722 41.7923 18.4969 41.8808 18.7167C42.0632 18.8906 42.287 19.2414 42.5579 19.1101C42.6522 18.9791 42.6079 18.9362 42.6079 18.8478C42.8346 18.1464 42.2014 17.8841 42.1075 17.4019C41.6567 16.963 41.112 16.8772 40.7554 16.3069C40.5284 16.0446 40.8882 15.9133 41.1148 15.6482C42.11 14.904 42.428 13.5892 42.428 12.4513C42.9673 11.5758 44.1895 11.3989 44.9141 10.5234C45.4531 10.0415 45.7711 9.38551 46.1362 8.85807L46.269 8.98909C46.949 9.03194 47.4908 8.19929 48.0355 7.80562C48.124 7.93694 48.2625 8.06796 48.3978 8.28776C48.5306 8.50725 48.3482 8.85807 48.5306 9.03194C48.6687 9.25143 48.4421 9.42562 48.3978 9.59949C48.5748 9.95031 48.799 10.3893 49.1638 10.5209C49.3019 10.0388 49.208 9.59949 49.2577 9.12041V8.98909C49.3462 8.33062 48.6248 7.98256 48.6687 7.32378C49.208 6.79909 49.8909 7.36939 50.4302 7.49766C50.5683 7.58613 50.5241 7.80562 50.5241 7.93694C51.0191 7.93694 51.4257 7.71745 51.7905 7.32378C51.6523 7.23531 51.4728 7.1496 51.34 7.06143C50.6625 6.49358 49.8027 7.01858 49.0835 6.49358ZM36.0602 8.37623C36.3283 8.33337 36.511 7.98255 36.7377 8.15643C36.6049 8.33307 36.3312 8.33337 36.0602 8.37623ZM42.0743 5.96613C42.4366 6.0546 42.8456 6.27133 43.2522 6.31694C42.8456 6.31694 42.2981 6.18592 42.0743 5.96613Z" fill="#0061A3"/>
<path fill-rule="evenodd" clip-rule="evenodd" d="M78.7072 7.69842H73.9621V10.6332H75.6461C75.6629 11.4901 75.1125 12.1647 74.3468 12.1647C73.2489 12.1647 72.6046 10.7618 72.6046 9.04812C72.6046 7.49761 73.0747 5.9125 74.3604 5.9125C74.894 5.9125 75.4002 6.22322 75.5854 6.82567L78.3367 6.00373C77.8609 3.92577 76.4867 2.2124 74.2498 2.2124C70.871 2.2124 69.541 5.65812 69.541 9.06648C69.541 12.9304 71.3161 15.7418 74.283 15.7418C77.1724 15.7418 78.7015 13.0216 78.7015 9.22995V7.69842H78.7072ZM94.8383 11.1444C94.8383 8.99179 93.9841 8.04648 92.8947 7.49761C91.9988 7.0424 91.3682 7.0424 91.3682 6.27679C91.3682 5.56444 91.9489 5.52985 92.2723 5.52985C92.8366 5.52985 93.6301 5.73067 94.1501 5.93148V2.72087C93.4641 2.39179 92.5296 2.2124 91.6862 2.2124C89.6844 2.2124 88.3213 3.8722 88.3213 6.65975C88.3213 9.44975 89.9607 10.0332 90.6907 10.3412C91.2107 10.5769 91.7804 10.7964 91.7804 11.4901C91.7804 11.8727 91.6087 12.312 90.8788 12.312C90.1571 12.312 89.0898 11.8191 88.4762 11.4738V14.9921C89.2887 15.4687 90.3312 15.7421 91.2464 15.7421C93.7546 15.7421 94.8383 13.5141 94.8383 11.1444Z" fill="#0061A3"/>
<path d="M85.0389 15.3538H88.3267L85.4815 2.59277H81.9503L79.0859 15.3538H82.3762L82.6999 13.4929H84.7155L85.0389 15.3538ZM83.1561 10.304L83.7061 7.05879L84.2622 10.3037H83.1557L83.1561 10.304ZM61.3918 6.98655C61.3918 5.18196 60.734 2.59277 57.8885 2.59277H54.0039V15.3538H57.217V11.399H57.8888C60.7204 11.399 61.3922 8.80981 61.3922 6.98655H61.3918ZM57.5708 8.08155H57.2167V5.91267H57.5708C57.861 5.91267 58.3365 5.98522 58.3365 6.9893C58.3365 7.99032 57.8913 8.08155 57.5708 8.08155Z" fill="#0061A3"/>
<path fill-rule="evenodd" clip-rule="evenodd" d="M62.7855 15.3537H68.4123V11.6533H65.9983V10.4328H68.1717V7.36945H65.9983V6.29281H68.4123V2.59302H62.7852V15.354L62.7855 15.3537Z" fill="#0061A3"/>
<path d="M0 23.2654H94.6323V29.9713H0V23.2654Z" fill="#EF7C15"/>
<path d="M20.0306 28.2019C19.7414 28.2019 19.4891 28.139 19.2738 28.0133C19.0613 27.8848 18.8961 27.7048 18.7781 27.4733C18.663 27.2419 18.6055 26.9676 18.6055 26.6505C18.6055 26.3333 18.663 26.059 18.7781 25.8276C18.8931 25.5962 19.0569 25.4176 19.2693 25.2919C19.4847 25.1662 19.7385 25.1033 20.0306 25.1033C20.3256 25.1033 20.5794 25.1662 20.7918 25.2919C21.0072 25.4176 21.1724 25.5962 21.2875 25.8276C21.4055 26.0562 21.4645 26.329 21.4645 26.6462C21.4645 26.9633 21.4055 27.239 21.2875 27.4733C21.1695 27.7048 21.0028 27.8848 20.7874 28.0133C20.5749 28.139 20.3227 28.2019 20.0306 28.2019ZM20.0306 27.889C20.364 27.889 20.6222 27.7805 20.8051 27.5633C20.988 27.3462 21.0795 27.0419 21.0795 26.6505C21.0795 26.259 20.988 25.9562 20.8051 25.7419C20.6222 25.5248 20.364 25.4162 20.0306 25.4162C19.7031 25.4162 19.4478 25.5248 19.2649 25.7419C19.082 25.9562 18.9905 26.259 18.9905 26.6505C18.9905 27.039 19.082 27.3433 19.2649 27.5633C19.4478 27.7805 19.7031 27.889 20.0306 27.889Z" fill="white"/>
<path d="M23.866 28.2019C23.5768 28.2019 23.3246 28.139 23.1092 28.0133C22.8967 27.8848 22.7315 27.7048 22.6135 27.4733C22.4984 27.2419 22.4409 26.9676 22.4409 26.6505C22.4409 26.3333 22.4984 26.059 22.6135 25.8276C22.7285 25.5962 22.8923 25.4176 23.1047 25.2919C23.3201 25.1662 23.5739 25.1033 23.866 25.1033C24.161 25.1033 24.4148 25.1662 24.6272 25.2919C24.8426 25.4176 25.0078 25.5962 25.1229 25.8276C25.2409 26.0562 25.2999 26.329 25.2999 26.6462C25.2999 26.9633 25.2409 27.239 25.1229 27.4733C25.0049 27.7048 24.8382 27.8848 24.6228 28.0133C24.4104 28.139 24.1581 28.2019 23.866 28.2019ZM23.866 27.889C24.1994 27.889 24.4576 27.7805 24.6405 27.5633C24.8234 27.3462 24.9149 27.0419 24.9149 26.6505C24.9149 26.259 24.8234 25.9562 24.6405 25.7419C24.4576 25.5248 24.1994 25.4162 23.866 25.4162C23.5385 25.4162 23.2832 25.5248 23.1003 25.7419C22.9174 25.9562 22.8259 26.259 22.8259 26.6505C22.8259 27.039 22.9174 27.3433 23.1003 27.5633C23.2832 27.7805 23.5385 27.889 23.866 27.889Z" fill="white"/>
<path d="M27.7014 28.2019C27.4122 28.2019 27.16 28.139 26.9446 28.0133C26.7321 27.8848 26.5669 27.7048 26.4489 27.4733C26.3338 27.2419 26.2763 26.9676 26.2763 26.6505C26.2763 26.3333 26.3338 26.059 26.4489 25.8276C26.564 25.5962 26.7277 25.4176 26.9401 25.2919C27.1555 25.1662 27.4093 25.1033 27.7014 25.1033C27.9964 25.1033 28.2502 25.1662 28.4626 25.2919C28.678 25.4176 28.8432 25.5962 28.9583 25.8276C29.0763 26.0562 29.1354 26.329 29.1354 26.6462C29.1354 26.9633 29.0763 27.239 28.9583 27.4733C28.8403 27.7048 28.6736 27.8848 28.4582 28.0133C28.2458 28.139 27.9935 28.2019 27.7014 28.2019ZM27.7014 27.889C28.0348 27.889 28.293 27.7805 28.4759 27.5633C28.6588 27.3462 28.7503 27.0419 28.7503 26.6505C28.7503 26.259 28.6588 25.9562 28.4759 25.7419C28.293 25.5248 28.0348 25.4162 27.7014 25.4162C27.3739 25.4162 27.1187 25.5248 26.9357 25.7419C26.7528 25.9562 26.6613 26.259 26.6613 26.6505C26.6613 27.039 26.7528 27.3433 26.9357 27.5633C27.1187 27.7805 27.3739 27.889 27.7014 27.889Z" fill="white"/>
<path d="M31.6998 26.0419V25.7376C31.6998 25.6205 31.719 25.5119 31.7574 25.4119C31.7987 25.3119 31.868 25.2133 31.9654 25.1162L32.138 25.2405C32.0731 25.309 32.0259 25.3733 31.9964 25.4333C31.9669 25.4905 31.9492 25.5476 31.9432 25.6048H32.1513V26.0419H31.6998ZM32.4345 26.0419V25.7376C32.4345 25.6205 32.4537 25.5119 32.492 25.4119C32.5334 25.3119 32.6027 25.2133 32.7001 25.1162L32.8727 25.2405C32.8078 25.309 32.7605 25.3733 32.731 25.4333C32.7015 25.4905 32.6838 25.5476 32.6779 25.6048H32.8859V26.0419H32.4345Z" fill="white"/>
<path d="M33.9904 28.1633V25.1419H34.3533V26.4876H34.9021L35.8183 25.1419H36.2299L35.2606 26.539C35.3905 26.5819 35.5041 26.6519 35.6014 26.749C35.7017 26.8433 35.7903 26.9648 35.867 27.1133L36.3936 28.1633H35.9953L35.566 27.2762C35.4804 27.1019 35.3816 26.9776 35.2695 26.9033C35.1574 26.829 35.0202 26.7919 34.8579 26.7919H34.3533V28.1633H33.9904Z" fill="white"/>
<path d="M36.8895 28.1633L38.266 25.1419H38.5758L39.9522 28.1633H39.576L39.2308 27.3919H37.6065L37.2657 28.1633H36.8895ZM38.4164 25.5533L37.7393 27.0962H39.1024L38.4253 25.5533H38.4164Z" fill="white"/>
<path d="M40.8662 28.1633V25.1419H41.1716L42.371 27.3233L43.5615 25.1419H43.8669V28.1633H43.5305V25.8019L42.4905 27.6962H42.2515L41.1981 25.8062V28.1633H40.8662Z" fill="white"/>
<path d="M46.3644 28.1633L47.7408 25.1419H48.0506L49.4271 28.1633H49.0509L48.7056 27.3919H47.0814L46.7406 28.1633H46.3644ZM47.8913 25.5533L47.2141 27.0962H48.5773L47.9001 25.5533H47.8913Z" fill="white"/>
<path d="M50.3322 28.1633V25.1419H50.6951V26.479H52.5672V25.1419H52.9301V28.1633H52.5672V26.7833H50.6951V28.1633H50.3322Z" fill="white"/>
<path d="M53.8319 28.8362V27.8676H54.1373C54.2907 27.6819 54.4043 27.4305 54.478 27.1133C54.5518 26.7933 54.5887 26.3962 54.5887 25.9219V25.1419H56.66V27.8676H57.1025V28.8362H56.7706V28.1633H54.1594V28.8362H53.8319ZM54.5179 27.8676H56.2926V25.4376H54.9295V25.9476C54.9295 26.4076 54.8955 26.7919 54.8277 27.1005C54.7628 27.409 54.6595 27.6648 54.5179 27.8676Z" fill="white"/>
<path d="M60.9094 28.2576V27.9233H60.9006C60.6085 27.9233 60.3562 27.8719 60.1438 27.769C59.9343 27.6633 59.7735 27.5133 59.6614 27.319C59.5492 27.1248 59.4932 26.8948 59.4932 26.629C59.4932 26.2233 59.6156 25.9076 59.8605 25.6819C60.1054 25.4533 60.4521 25.339 60.9006 25.339H60.9094V25.0262H61.2768V25.339H61.29C61.7356 25.339 62.0808 25.4533 62.3257 25.6819C62.5706 25.9076 62.693 26.2233 62.693 26.629C62.693 26.8948 62.637 27.1248 62.5248 27.319C62.4127 27.5133 62.2519 27.6633 62.0424 27.769C61.8329 27.8719 61.5821 27.9233 61.29 27.9233H61.2768V28.2576H60.9094ZM61.3387 25.6219H61.2768V27.6362H61.3387C61.5335 27.6362 61.7031 27.5962 61.8477 27.5162C61.9952 27.4362 62.1103 27.3219 62.1929 27.1733C62.2755 27.0219 62.3168 26.8405 62.3168 26.629C62.3168 26.3062 62.2283 26.0576 62.0513 25.8833C61.8743 25.709 61.6367 25.6219 61.3387 25.6219ZM60.8475 27.6362H60.9139V25.6219H60.8475C60.5495 25.6219 60.3119 25.709 60.1349 25.8833C59.9579 26.0576 59.8694 26.3062 59.8694 26.629C59.8694 26.8405 59.9107 27.0219 59.9933 27.1733C60.0759 27.3219 60.1895 27.4362 60.3341 27.5162C60.4816 27.5962 60.6527 27.6362 60.8475 27.6362Z" fill="white"/>
<path d="M63.6522 28.2276L63.4796 27.949C63.5976 27.889 63.7024 27.8162 63.7938 27.7305C63.8853 27.6448 63.9635 27.5319 64.0284 27.3919C64.0933 27.2519 64.1435 27.0748 64.1789 26.8605C64.2143 26.6433 64.232 26.3733 64.232 26.0505V25.1419H66.2989V28.1633H65.9315V25.4462H64.5684V26.1405C64.5684 26.5605 64.533 26.9076 64.4621 27.1819C64.3913 27.4533 64.2866 27.6719 64.1479 27.8376C64.0122 28.0033 63.847 28.1333 63.6522 28.2276Z" fill="white"/>
<path d="M67.2115 28.1633L68.5879 25.1419H68.8977L70.2742 28.1633H69.898L69.5527 27.3919H67.9285L67.5877 28.1633H67.2115ZM68.7384 25.5533L68.0612 27.0962H69.4244L68.7472 25.5533H68.7384Z" fill="white"/>
<path d="M71.1793 28.1633V25.1419H71.5201V27.5805L73.4011 25.1419H73.6799V28.1633H73.3435V25.7162L71.4581 28.1633H71.1793ZM72.4318 24.9062C72.2371 24.9062 72.0645 24.8605 71.914 24.769C71.7635 24.6748 71.6573 24.5319 71.5953 24.3405L71.8033 24.2676C71.8653 24.4105 71.9464 24.5162 72.0468 24.5848C72.15 24.6505 72.2769 24.6833 72.4274 24.6833C72.5838 24.6833 72.7106 24.6533 72.808 24.5933C72.9083 24.5305 72.9998 24.4233 73.0824 24.2719L73.286 24.3405C73.2004 24.5462 73.0809 24.6919 72.9275 24.7776C72.777 24.8633 72.6118 24.9062 72.4318 24.9062Z" fill="white"/>
<path d="M74.9777 26.0719L74.8139 25.9433C74.8788 25.8776 74.9246 25.8162 74.9511 25.759C74.9806 25.699 74.9983 25.639 75.0042 25.579H74.7962V25.1419H75.2477V25.4505C75.2477 25.5676 75.2285 25.6762 75.1901 25.7762C75.1518 25.8762 75.081 25.9748 74.9777 26.0719ZM75.7124 26.0719L75.5486 25.9433C75.6135 25.8776 75.6593 25.8162 75.6858 25.759C75.7153 25.699 75.733 25.639 75.7389 25.579H75.5309V25.1419H75.9823V25.4505C75.9823 25.5676 75.9632 25.6762 75.9248 25.7762C75.8864 25.8762 75.8156 25.9748 75.7124 26.0719Z" fill="white"/>
</svg>
